<mxfile host="app.diagrams.net" modified="2023-11-29T23:27:23.316Z" agent="Mozilla/5.0 (Windows NT 10.0; Win64; x64) AppleWebKit/537.36 (KHTML, like Gecko) Chrome/119.0.0.0 Safari/537.36" etag="VrDd8Wz5yHkaq3hnuPgJ" version="22.1.5" type="device">
  <diagram name="Página-1" id="LlSvOEofZS7p_xhp90nQ">
    <mxGraphModel dx="1823" dy="379" grid="1" gridSize="10" guides="1" tooltips="1" connect="1" arrows="1" fold="1" page="1" pageScale="1" pageWidth="827" pageHeight="1169" math="0" shadow="0">
      <root>
        <mxCell id="0" />
        <mxCell id="1" parent="0" />
        <mxCell id="OhrXi5PZfvqV9Yk3LojG-3" value=":Mascota" style="shape=umlLifeline;perimeter=lifelinePerimeter;whiteSpace=wrap;html=1;container=0;dropTarget=0;collapsible=0;recursiveResize=0;outlineConnect=0;portConstraint=eastwest;newEdgeStyle={&quot;edgeStyle&quot;:&quot;elbowEdgeStyle&quot;,&quot;elbow&quot;:&quot;vertical&quot;,&quot;curved&quot;:0,&quot;rounded&quot;:0};" vertex="1" parent="1">
          <mxGeometry x="-563" y="440" width="100" height="300" as="geometry" />
        </mxCell>
        <mxCell id="OhrXi5PZfvqV9Yk3LojG-4" value="" style="html=1;points=[];perimeter=orthogonalPerimeter;outlineConnect=0;targetShapes=umlLifeline;portConstraint=eastwest;newEdgeStyle={&quot;edgeStyle&quot;:&quot;elbowEdgeStyle&quot;,&quot;elbow&quot;:&quot;vertical&quot;,&quot;curved&quot;:0,&quot;rounded&quot;:0};" vertex="1" parent="OhrXi5PZfvqV9Yk3LojG-3">
          <mxGeometry x="45" y="70" width="10" height="70" as="geometry" />
        </mxCell>
        <mxCell id="OhrXi5PZfvqV9Yk3LojG-5" value="&lt;div&gt;notificarSuscriptores()&lt;/div&gt;" style="html=1;verticalAlign=bottom;startArrow=oval;endArrow=block;startSize=8;edgeStyle=elbowEdgeStyle;elbow=vertical;curved=0;rounded=0;" edge="1" parent="OhrXi5PZfvqV9Yk3LojG-3" target="OhrXi5PZfvqV9Yk3LojG-4">
          <mxGeometry relative="1" as="geometry">
            <mxPoint x="-70" y="70" as="sourcePoint" />
          </mxGeometry>
        </mxCell>
        <mxCell id="OhrXi5PZfvqV9Yk3LojG-11" value="&quot;El doctor fue notificado&quot;" style="html=1;verticalAlign=bottom;endArrow=open;dashed=1;endSize=8;curved=0;rounded=0;" edge="1" parent="1">
          <mxGeometry relative="1" as="geometry">
            <mxPoint x="-359.81999999999994" y="560" as="sourcePoint" />
            <mxPoint x="-510" y="560" as="targetPoint" />
          </mxGeometry>
        </mxCell>
        <mxCell id="OhrXi5PZfvqV9Yk3LojG-12" value=":Doctor" style="shape=umlLifeline;perimeter=lifelinePerimeter;whiteSpace=wrap;html=1;container=0;dropTarget=0;collapsible=0;recursiveResize=0;outlineConnect=0;portConstraint=eastwest;newEdgeStyle={&quot;edgeStyle&quot;:&quot;elbowEdgeStyle&quot;,&quot;elbow&quot;:&quot;vertical&quot;,&quot;curved&quot;:0,&quot;rounded&quot;:0};" vertex="1" parent="1">
          <mxGeometry x="-403" y="440" width="100" height="300" as="geometry" />
        </mxCell>
        <mxCell id="OhrXi5PZfvqV9Yk3LojG-13" value="" style="html=1;points=[];perimeter=orthogonalPerimeter;outlineConnect=0;targetShapes=umlLifeline;portConstraint=eastwest;newEdgeStyle={&quot;edgeStyle&quot;:&quot;elbowEdgeStyle&quot;,&quot;elbow&quot;:&quot;vertical&quot;,&quot;curved&quot;:0,&quot;rounded&quot;:0};" vertex="1" parent="OhrXi5PZfvqV9Yk3LojG-12">
          <mxGeometry x="45" y="70" width="10" height="60" as="geometry" />
        </mxCell>
        <mxCell id="OhrXi5PZfvqV9Yk3LojG-17" value="" style="endArrow=classic;html=1;rounded=0;exitX=0;exitY=0;exitDx=0;exitDy=5;exitPerimeter=0;" edge="1" parent="1" target="OhrXi5PZfvqV9Yk3LojG-12">
          <mxGeometry width="50" height="50" relative="1" as="geometry">
            <mxPoint x="-512" y="520" as="sourcePoint" />
            <mxPoint x="-330" y="600" as="targetPoint" />
          </mxGeometry>
        </mxCell>
        <mxCell id="OhrXi5PZfvqV9Yk3LojG-18" value="notificación(Mascota)" style="edgeLabel;html=1;align=center;verticalAlign=middle;resizable=0;points=[];" vertex="1" connectable="0" parent="OhrXi5PZfvqV9Yk3LojG-17">
          <mxGeometry x="-0.0254" y="8" relative="1" as="geometry">
            <mxPoint as="offset" />
          </mxGeometry>
        </mxCell>
        <mxCell id="OhrXi5PZfvqV9Yk3LojG-19" value="Notificar Al doctor&lt;br&gt;(Observer)" style="text;html=1;strokeColor=none;fillColor=none;align=center;verticalAlign=middle;whiteSpace=wrap;rounded=0;" vertex="1" parent="1">
          <mxGeometry x="-550" y="380" width="200" height="30" as="geometry" />
        </mxCell>
        <mxCell id="OhrXi5PZfvqV9Yk3LojG-20" value="" style="shape=image;verticalLabelPosition=bottom;labelBackgroundColor=default;verticalAlign=top;aspect=fixed;imageAspect=0;image=data:image/png,iVBORw0KGgoAAAANSUhEUgAAAqkAAADpCAYAAAAH4a6CAAAAAXNSR0IArs4c6QAAAARnQU1BAACxjwv8YQUAAAAJcEhZcwAADsMAAA7DAcdvqGQAAHMbSURBVHhe7Z0JvFbT/v+/aJ41jySV0qAiNNEgkYSEpFwyXFxcc110DeEfbri4ctXtUpmjq4mKylD9khKJpEknlSbNg8L/vNd5vs9ZZ5/9nM45neE5z/m+X6/9evZee+21197PsD/Pd33X93vE77///ocYhmEYGXLkkUdK8u9lZCvrHO7x+Q39f+j3hyJbhpGWB458IF8/3wX9+2WEc2Tk1TAMwzAMwzDiBhOphmEYhmEYRtxhItUwDMMwDMOIO0ykGoZhGIZhGHGHiVTDMAzDMAwj7jgiebHZ/YZhGLlMx44dZcaMGZGtgsH+/fulb9++snTpUvnuu+9sdr8RE5vdb+QGFoLKMAwjEyTaQ3DLli1OeCJAWe69916pWLFiZG8qb7/9tjRu3FiaN29uItWIiYlUIzew4X7DMIxCxFlnnSW1atWSBg0ayD333CNz586VqlWrOqEaxiWXXCJNmzaNbBmGYeQdZkk1DMPIBPFuqVmxYkV0WJ7Xq666Stq3bx/Zm8r06dOdZbR27dqRkszB9Zsl1YiFWVKN3MAsqYZhGAWY3r17S+nSpaVr167yr3/9S9avXy+nnXaa/PFHuP2BelkVqIZhGPmBWVINwzAyQV5aavbs2ZPGX5T1s88+W66//vpIjVTmz5/vLKNlypSJlOQOZkk1MsIsqUZuYJZUwzCMOOLvf/+7VKpUSa699lqZPHmyFClSRC699FJp06ZNpEZaWrdunesC1TAMIz8wS6phGEYmOBxLDUPwWENZvv/+e/fapEkTeeaZZyI1Ulm2bJk0bNgwshU/5Kcldc+mPVKqSqnIlhGPmCXVyA0sTqphGEYmyG6c09dff11uv/12NyTfqFEjt+j6McccE6kV/yAC8oOiRYvKUUcdJfv27YuUFE5KlCiRqXuQ2Xq5gYlUI6cxS6phGEYWYEKS+ov6ltGjjz5apk2bFqmVyqZNm6RKlSqRLSMjhg8fLq+++qosWrTICa3jjz9e6tWrJ7NmzZK9e/dGahVOTj31VNm2bZuztMeCPz6EE/vkk08iJYUHE6mJifmkGoZhhBBLFH399dfSq1cvGTNmjOzevVu6dOniZtW/8847kRppMYEam82bN8vdd98tJ5xwgvO9Zf2II46QJ598Ug4ePOj+ACD+69atGzmi8PLhhx/KypUrZcSIEZGStFC+fPlymTRpUqTEMAo+Zkk1DKNQg3UKS6hvFWVBpK5duzZSK5Vff/1VihUrFtkyDgcyXJF6tUePHnLDDTdIp06dIntSwTWiZcuW8tprr0VKCi+XX365czn5+eefIyWpVKtWTTp37uzcSwojZklNTMySahhGoWDDhg2RtbQQYxSfUYZIsdpdc801zhoVJlDBBGrOcddddzmRitU0TKBCUlKSy5JlpPg3Y70fNGhQpCQFtnfu3FloBaqRuJgl1TCMhALBQ1YljTGqvqMMI3/77bcuvJMRP3zwwQdy8cUXS4sWLWT27NmR0hSIF0t4rV27dkmpUja7HxCkzz//vLsnCn+0WBDzDz/8sNSvXz+yp/BgltTExCyphmEUSBCfTEoKgm8joZ1+/PFHN0z80EMPyeLFi90QqQnU+OOcc85x7yX+lMHQW2+88YYTpyZQUxk6dKgT7gz9A69sb9y4UU488UR3Dx955BG3zzAKOmZJNQwj7mEY0/cXRdQcd9xxMnLkSOnQoUOkllHQKV++vAs59eWXX0qdOnWkb9++bp333EiFSVI33nijrF692k0qIyrCdddd5/Yh9kkI8c033zir6oUXXujKEx2zpCYmeStSkz9EhlGgsR/BXGH79u1OiOCfeOaZZ0ZKU+nTp080xqjGGS1evHhkr5EIqMjCJYMQVERLwFfYJk2Fw/cAP+vq1au7P21B/ve//zmx2rRp00LhAmAiNTHJc5E6xHI/GwWUwUc+YCI1h3jxxRejvqK8/vLLL+6hO2DAADfL2yhcPP744/L++++7eKiAj+p7773nXDdeeOEF97kw0vLRRx/JJZdcIuPGjXOz+mPB0D9iFaF6//33R0oTDxOpiYmJVMPIJCZSMw/+oIhP4joyLBnkgQcecEO7WERZLA5m4eXdd9+VW265xU2a8j8HlBHYnygL5pN6eBQGFwATqYmJiVTDyCQmUmPDZA7fZ7RcuXJRAfrPf/4zUssw0sKEtnbt2rmh/a5du0ZKjdwikV0ATKQmJuYkahhGhhC8nixLb775ppspHwYWMCYwPf30024yB7EtSRFqAtWIBWlPr7rqKvcHxwRq3oAFle+yRQEwCgomUg3DSAeClAcafqLEX+zXr5+zdsWyVDCxCb/BNm3auID4hnEoEKhMkrvpppsiJUZegW/qsmXL3CS15s2bOwurYcQjNtxvGJkkUYb7iafoT1rC+hkEawt+bAzXI1QJhG8YOQVDzoSWmjhxYqTEyC8KmgsAozm9e/eWJk2aREpSCA73M6LzyiuvyH333ecm4BkFE7OkxgmVv9ss15w+wr0qrN963NNy7Mc/RkoMI3swYYK0k4SrYaiPH+4FCxZI7dq1IzXSgnWlV69eTqSaQDVyktGjRztL/X//+99IiZGfFDQXAPzd77zzzshWbB599FH57bffTKAWcMySGicgROt/8IMsP6eB/HjmsVJ0z0E5Y8gsKb5zv3z+l9Nkc+PKkZqHj7Y99852sqdyyUipcSji1ZL6ww8/RK2iLKNGjYrsSYVUoeSmR3TWqFEjUmoYecvcuXPdRClm8uMaYsQXBSUKwLnnnuv8mO+4445ISVpLKp8zrK1EF7F4ygUbE6lxQvvHPpVfyxRzy6IBLZ1orTN7jROpnwzuKDXn/yRXdhol24+tIP93e1v5+aTqcvSKrXL+tSm+RHMGdpCP/t9Z0mLUl9Gy0TNTYgtyHFAHYdrn/LFSa95a+em02jLuzcuky73TpelrX8uCm06VzQ0ry5fXniwHStm/zyAZidSXXnpJ1q9f70Ir5QX8GJ9yyilOnNaqVSsa4J7Xnj17SpUqVSI1DSM+2Lx5sxOoWPGvvPLKSKkRj8S7C8CSJUukWbNmLjqEDvv7IvX88893Qtb8nQs+NtwfB2DZRIwiPMts2OW2saomtTtG9pctLuV/3CZtn/xMhm0cJMOX3CKVl22W/eWKS82F69w2wh+BirA9bsZKGbprsCvbXbV09DjKOEepTbvlo6Fny8SRF8qouddJ6+Gfy6rO9Vz9JZc0lbLrd5pAzSIEnydNYY8ePSIl2Wfnzp0yf/58NyTKw5whd3xIg/CDzDm3bNnirB+TJk2SJ598Uq655hoTqEZcwkSpyy67zARqASDeXQAQpsOGDQsd9h8/frysW7fOBGqCYCI1Dii654B73Xbc0cmitJg0eWOxG/aHXdXLSO25SfJdrxPd0Dx1i2/bJzvqlHei8sYmz0mXv33o6iJsF153SlRk+sf5YKFd26aOlNq8V8olbZdlPRu5ciyzWxpUcuvGocGns3Xr1m4dYXnyySe79eyCZQCfUYLfT58+XUqWLClXXHGFs0CFwfksyLlRECC9admyZZ1Vzig4xHMUAD5T+Ms/9dRTkZIU8EXlD76RGJhIjQOqLNnoxOGBUkWl9ry1zkK6rnUtJzp/Ob6iq6OvbYbNdgIV4YnvqlpI/QlXYeAugLjdU6W0q88r0Bbn5fiTX/rCiVfj0DC8j0Al3zgpPmNBthwE57PPPit/+ctfXPpCTf0YhAfA7t275YsvvpAxY8a4BwTpIbFmGEZB5V//+pd8+umn8vLLL0dKjIIEQ/2vvfaa+4OBC0Dfvn3d6E088I9//EPuuusuN/wPpNDljz4jUEZiYCI1DsCCiQhFLAIWUmVTk6pOOF5w1bspPpHJIGjxPWV7UJkhziWAiVVfXdkiWg/rKhbSViO+SNkeNE2mPtPdnQPr6bWtX3RD/0AbXe+eKutPqRkVr0ZsdHgf6+n1118fKU0PQ5unnXaaC1aONQKf0XvvvVcaNEixkgc5/vjjI2uGkRjwB+1vf/ubm8lvE1gKNvHoAhAc9jcrauJhE6cMI5O0SRb7tyX/QDNRqX379tHZ9ASxx0oaBH/RSpXMfcIonBCnkolSzz33nFm2Eox4iwLAJKmpU6c6n3wMCEbiYCLVMDLJf5NF6s8lSzpf0DPOOMPNpNdZ9WRlMgwjlY4dOzrxMHDgwEiJkWjESxQALLwI5RkzZrgUzUbiYCLVMDLJDckideywYW7mPQ77/fv3lz/96U9SsWKKv7BhGCngqw1m1co8ROwwjERGQ4RlBROphpFJ/DipM2fOdGKVtHsIVcLqkNHJMAo7jz/+uLz//vsxJwga4SBSH7Lno5GgPJD8/MyOSLW/boaRDRCkTAYhPBShWXDcb9mypcuDv3Xr1kgtwyhcvPvuuy6Shc3kNwwjJzCRmo8Qp3RAmxFpcvOzrnFPjfiHoX7i9S1cuNDF68M3iokihlHYIPsPAfsRqOYXaBhGTmAiNR8hPuqGk2u64PrZgVSqh4qPeigIZeWLZCP7qHX1lltuiZQYRuFg//79cvXVV7twa+RUNwzDyAnMJzUfQWSuOPt4OfGdb11OfQL0IxibvP2N1J+8zKVD1Zz8lGsOfvL3L7z2ZOk0+CO3TR0yVCF2G05c6mKuft2/hfQ9d7TbT47+Nyb2c+1jpW37+KeufM497aXtE5+59W/6NndxVLvdNsXl8QdSpy4a0NKtGxnn7jeMwszll1/ugqjj7mJkD/NJNRKZ7PqkmkjNA8jF3+P692RxshBsliwASV1KXv1T/zVPpj/RzWWDIqA/ghAxSgD+SS9d4NKbIioRoGSf4pUsUwoid+lFjV0gf+cmMGhaVIz6aBtAO4heBUsqotZvF7DQ0r/PkgXweTdOlDl3JwvaJz+T6U92c+crjJhINYz0EIIId5dJkyZFSozsYCLVSGRs4lScgkDtes9U+b/b2kjDKcvk0/vOdIKQvPonv/C5y/aEhfS4GStdXUhJVZqSf5/sUghYhCUCE6GEsAwD8asCVTNSsajl9FC5+dVHlmNubPKcS6O6t1IpGffWZc66O+vBTk64Hq6LgWEYiQERLt58802bKGXkC1u+3yLDWw53AohlzLljZO+WvZG9RiJgIjWXQWxiLT39mbmyrHtD6fDox3L81BVS6YctMmzjIGdZZkGYYlEF0paqYKWe5u1HqFK3zIZdGQpFxCbHkdef+rgDAO1QHouGE5bKR0PPdscMX3KL7K9QQkpu2SO9L33TpWrt+OBM+fwvpxVaS6phGKnMnTs3OlGqcmX7TTDyhxZXtnAWaJbuz3SXybdMzpJQpe7HQz6Wg3tTnrlGfGEiNQ9AqI4fe7Es797AvR4skWIl9YfldUgfEIdYMt3wcjJYXhmyV8tolW83Or/UXdXLuHrBaADaLlZa6lf7aoPb1iF9bQcXAYQrltyL+r0jG1rWiOb+v+Dq8a4ultTXJ13hjuXVBKphGIReU4Hapk2bSKlh5C+VTqgkJ5x3giz/YLkTnZNumhS1si5+dbGr41tfR3cbLVPvniozHpghQ0oPkaTZSWn288o2bSFk5z4915VTz8gbzCfVMDIJ4t18Ug1DpEePHtKqVSuXCtPIGcwnNesgIJdNWSZtbk/9o6RiVGl2RTMnMmc+OFOa920uX7/2tbQa0MoJWsCS+vkLn0u7u9q5berpftpfOGqhdBjUQT6870M5tt2xrj0j6yDuzSfVMAzDyFXuuOMOKVu2rAlUI26pULeCbF251b1CkZJFpHrz6rJz3U7Zv3O/lKpcypUHObDnQJr95Y8pL8XKFHPlZWuUlfrn1HflRt5hItUwDMPIFC+88IJ8/PHHLh6wYcQbDMMvGrtIKjeqLBXrVZSVM1a6ciypG77eIGVrlpXiZYvLns17XHmQoqWKutfNS1PmfGxfs11+3fVrtNzIe0ykGoZhGIdk+vTpMmjQIOeHWqJEiUipYeQvi0YvckPJLLMemSW9x/aWkpVKRoflKcffFEtqtZOquaH8t/q85crxWT3iyCNk5/qdrs76heuly5Aurh32U4/6RSLzSIy8J899Ug2jIPLJA53kjIdmmk+qUShZvXq1tGvXzqX87dWrV6TUyEnMJ9VIZBD92fFJtYlThpFJbOKUUVjp2LGjnHvuuTJw4MBIiZHTmEg1EpnsilQzbRqGYRgxue6666RBgwYmUA3DyHNMpBqGYRihPP744/LDDz/IiBEjIiWGYRh5hw33G0YmseF+ozAxfvx4ufnmm2X27NlSt27dSKmRWzDcbxiJSKcHOsnMh2aaT2oQUoeSa560pJoLPzuQorTH9e9J09e+dtvf9G0uk166IMM2yeZEBilSmRqJgYlUo7DwzTffuIlSb7/9tpx99tmRUiM3MZ9UI5Exn9RchJz6qzrXcwKbhdSmCNT2j30aM4c+aURNoBqGUdDYv3+/S3n62GOPmUA1DCNfiRtLKtbKM4bMknJJ26MWy9EzBzixh1WS/PLw02m15Y2J/aTUpt3OSlp9wTqpNW+ts26S8/7kFz53ee1fm9Lf1Q/WwQJa/sdtctLoRe5cR6/YKuPevEy63DvdnVeP5RXr6cLrTpHdVUuns8i2GPWlnH/t/9z6nIEdXO79OrPXSMOJS10+/K/7t5CyP+2QJX2axbwucu63ffxTd67l5zWUJZc0jebXN+IPs6QahYHLL79cqlevLk8//XSkxMgLzJJqJDIFMgSVCj3E49Rnuku326Y4UajClOHyuXe2c+Xs31O5ZLT8qytbSNe7p8p7L/dKFo5Fo4KSY2kX1rapE63DsX75BVePl/f+e5Fsblw5Wr5oQMuYLgKU9+0+RnZVL+NEMu1hSV16UWPXBv3qMmhadB/bCGBEqt837T+ittWIL5xoBr+OEZ+YSDUSnb///e+ycOFCmTRpUqTEyCvMJ9VIVBLCJ1UtqYhSRB6isNH475wI9EVjqc17pc2w2bLk0qbS6j8LouVBwYhARIz6x/oCl7Y/u7eDO7daNBW11tKPIPRLhW+rl75Id06ELvgiNey6ELug9RHKWGBNpMYvJlKNRGb06NHy6KOPuolSlStXjpQaeYVZUo1EJmF9UvdUKS3lV29zQ/RQZclG93owk2nKOLbongNuHdG4pUElt+5D2cSRF0Z9TkfNvS5UoAL92Vfh8FMCIkgr/bAlsiVp1g2jIMJD1paCu+CHSripqlWrhu6Ph8UwjMJF3FtSsXbqUDtCNeiTmhlLaphPqm9JBd+aio/pJ4M7uiF4JkyB+p+C+pSqu4L6pGbFksq5/XOuSD5+dnI7ZkmNX8ySmjGICLMEGblFdi0xBQX7/hiJTIH0STVSQbAidE2kxi8mUjPGHrJGbmIitWCwd8temXzLZOeHWOmE9COX8cDHQz6Wep3rSZ12dSIlRm6TsMP9iQq+tQPajHDCx4mfZEygGoZhGFlly/dbZPrA6XJw78FISf6x/IPlctpfTnMCdfGri2XMuWOccFVYp4x9+cWpN50qK2esPKz7hdBNmp0U2UqF6worN7KHidR8gqF/fF/VD9ZiqhqGYRgFGUTfhq83SKnKpSIlIiUqlJDNS1PjibNOWW6BYJ/79NzIVjglK5WUYmWKyfY12yMlWefMwWeaJTYPMJFqGIZhGHEKggvhpWClY+iUJWilfL3X66580k2TnGDkuOEth0frc6xf5tfDMsj26G6jZcqtU6LnpH327fxppzuf3xbHso8+UrZ61mrZv3N/GpFar1M9WTphadRqufbzta5MwfKobWp//Gukr/TFL9N6nFvLWKevU26bIh/c+UH0uLD2oUzVMrJn8x5XZ1zfcbL1h61uv95Pyrku6lOubagF2H9ftB+cE5Fu5Bzmk2oYmcR8UjPGfFIPDx6O4/qNkxb9WkjNU2q6h2O1FtUiew1EQGHySUUMjes/LrIlUr9bfTnv2fNkztNzpMuQLs4aiHBj2LrppU1dHMrznjvPlauQUppd0cy98pma+eBMaTWgVXQ4Hvi8TfnrFOn+z+6unHa3rd7mjtM62gboedvd1c4JwmPbHev28xn+/IXPXXmRkkXcsRXqVnDCtGH3hu7YZVOWSe1Ta0fbV/y+ffPWN2l8Rmn3o8EfRa8btA9YNAGhyDEIZM7R5vY2rlwJu3b65ltD/TJtj34CffXb4BxcE0L3q1e/knOGnePqcT9OuuIks7IGyO73t9BZUpmghNjocf0EFxHAMAwju/Dw9K1Lar3JDjuSdkj3Z7q7daxB5eqUc+tG4QRRhGhF/Nz63a3S//3+8sfvf0jxssWlaKmirk7lRinxbA/uPyjl65SPliO0tq7cGhWBfDYRXQf2HHCWvmcbP+vKEMHUA0SwTnSiXcr5fPNa/5z67nOtFtiRHUa6elC2Rlm3PyMQpeu+WOcW1n3UCjmk9BBZPm25K0N4IkApRzgiBP3rBsRjxXoVI1uSRlD6hLUfC8Q6gprrhhqtarjr534Cwrt68+quPwrnRKSzj4V1I+coVCKVyUowdNdg+b/b27r1rEIIKRO3hmEox7Q9RgbvHuwExVUfXuUsWtkRqlhNEQkICwSJWowMQ8FKuD1pe9SXUn09ixQv4soRoeALOBW7bG/4aoMTWYheyljUEunDZ4/6377zrfPdZBvL4aVvXOqOufbTayM106IiUvuhIHoRxywqrIHvCe3TJt+h+menil36Rfmujbtk37Z9zo3Abxfh+OPsH511ExC1KiaVjNqnXd8tAVSkc91cP6KTV9oGzhX0udU/BMB++mTkHHEjUomTipXzon7vOEvnrcc97QQhEHNUZ8FTB9QiysIxHO/XY+Y8opQ2Lu/xqlRatlX6nD/WxSW9sclzUmFFyocKqMP5OC7WeWmPNnoOGC+d7v8wTT3DMAzgYc7MZoYreUD6EziwCDFECWrdYaGMhxtlvu+b1uVVy7DaqpXHKBwwbK3iic8XoZ3e6vOW+zzMemSWm6kOWFJxF6EcodS4V2P3mdPPzqKxi6T6SdWl/T3tnaVey/VzFgSr4rfvfhsdpscCqhbYWUNmOfEXREWdP1EK6DfimIV1pfwx5WXLD1tcmyPajpBta1Isof73g/3VmldzQ+hDqwx1ZexnOB2rJRZSyoAyBCQWU6y+B/cdDG2f79uvu351dfmejjlnTPSPJdf57fhvo9Zh3xrNubgGfT9Ah/X1HFh8jZwjbnP3IwAJxP/ZQILeT4/m7kecJrWpI02SHwJaBgjSsBz//qx5TalKoH4N6D/vtjbS9Z6p8nnyg4VEAHreYO5+zksc091VS6dLBGAUDvizYj6psSmMPqkIRt8HD3joY3nBT9D3jVN/N1BfOo7H1+7M+86Ujx/9OOrLpm0gQHxfPC0Ps34lOoiAwuSTWlBB7IX5hMYThfl7lF9k9/ubr5ZUsjMhWsePvThZEBaV/RVKOBEIpB8tvm2flF+7Q+rMXiN3Vh3qRAKW0FKb9zgximVULZpkoOJ42oFNTaq6VyysGUHKVM7D+WD7sRVkP74vyeWIaLWk+rn9DcMwMgJrUiwYip3xwAz3o41lKGlukvNxw7dPh0Kx8GCpCvriRX0QI0OchhFvqJVRLZPxBt8d/QNoxD9x5ZOKWCy9cbdbV9G5vXY5SWp3jAzbOCgaUxRxq3FGR86/QU4avUh+Tf5BD8vx71tDw1BRq/U5vvjO/VJk7wGXTx//Vc5J6lPDMIyM4MHMUChDpbBrwy73UGRRXzWsqZ0f6uysZiw3fnmjVGqYOnzog1gN9UGMWG0NIx7xXRTiDb47WFB9twMjfokrkbqjTnlpNeILZ7kkVz9D8DvqlJNP7ztTrm39oivHclp7TlI0WxMW1i0NKrl605/s5o6jvMugaS5fPlbWa04fEdN/FBGLVZb6wfPCoDJDXHm1r1Jin2FxbThxqfmkGobhWDNnTdQvDl9BDeODvx2TPdjn+6oxnI+llfosLnbjvnDLaEY+iIZhGIlO3MRJZVje9w01jHiDPyvmkxobi5Nq5CaIdPNJLTgwquDHbo0FowzxHluUa1k4aqF0erCTjWJkk+x+fwtVCCrDMAzDKKwwK15n8+vM/wnXT3Ai8XB8SBGa0wdOT9MGk6cYBTjUsPr6hevdLH0EKhMJiWBB33zYzs/IFoyMMKufvmYX7jv3Pwj3zI8CYqQlbkQqw+5Tnj/PrKiGYRiGkQMg6hBGiEjAFxMxyDaxPQdtGiQ9X+rpEgYcjg8p1sWuj3dN00Zm/VKZxOTHNz36uKNdLFLtM69sU54bBO9RLDTQf3bhvls0gaxjllTDMAzDiFP8HPEIKQRVZuLpkmuf8GVEksAvmv209fNXPzvLKeVEl1g1Y5VrE7FG+8G2/Virzn86uU6wXkZtqFWUtrC2atYq6uz7ZZ9ovFKFKBegVksmDRLpQss5B9en7dMu90fb1bKwa2HR7Vj3KFiH8wF9pK/0mXapx7X5Vl99r7gX2gbroPV1XffjRmDExnL3G0YmMZ/UjMGnzjByA4aN8W8sTD6pCJpg7v4LR16YpXi6lPtxfBFRBOdnUt/sf8x2+4uWKhpdX/5BStpQDWDvg+jTvPWkNwWtx76wNvxjgjnuKW/et7ksnbDUHUe/EYT0t9H5jWTlzJXOGkuf63WqJ0snptZT9Do15JvfbxWEWkbbmblHPghM0q2qK0Kwnl+GmEZw8j6tmb0majXVNoDwcyQJmHzLZPeZxtJMP7FqJ7qVFUGene+vidQY+IH/DxXGSgP9k4QguxApwJIExDcmUjPGJk4ZuUl2H3IFhVjfHxWWCBpfDCK0sNrh+8l+f2KPiifEIeWZFakco6JMQWRhaQQyVpEalYxqfj2/X8E2EGE6nI9IU9HoxGdyvTCRqu00u6yZLH5zcXSbV8Qu0S5I8QqEc0PgqajXbV9gAvcqM/co+OeAFLCxRCroPUW4c51cI+h1IoYp0324Dfj90PcwnpMf5ATZ/f6a6cMwDMMwCjAx4+mWyNjAEgSLpIosQECF5b4P1vNhHxZKQLwGc9370D9NWuGDcKYdBCqvbCsIOoQyfUJAKohCyqiPMAz2MTP3CCGKVZNrpS0Er0If6asvUAGBimjnOJJtIEaJicy1A/fC97mlH4SmO7DngNtG3OJGYIQTNyKV7E4sSvvHPnXWRT/rk+bop5w4pZQRL7Xcmh3Omon1E9ivx3e/eXI0pqrm86cN2tJ29bx+u6RYVcL6QNpVXSdDVZO3v4nWYR/47flxVdmvdbVPPv5xeo6wPlPGdfvlem7DMAyj4JOZCUhYIcPi6SLudq7fGfW3PBTk+0dg0UZGue+D9bYsS53VrxZE9nHeYK77IOTKV/cBH4bF6bvm0Feo/2zjZ1Ouc8gsJxyxfrLNsmjsIicWg31EZB7qHqlwZZ06G79NSfIDHF+mahknPvFJ5ZyAVZrjEcW8D1hdiVagbYBac4E6uGvgD8x+RDzXYIQTN7n7P/p/XaX1C59H8+oH8+cjyIijuvCak6XVfxakiafKvjOSP6wE7ycTFSKPofOlFzWWrndPlfde7hXN+x8clqcu55r1YGcnTBded4rbj9gjscCkly5I14dgLFfaJaEAmbAQnLTz0WNdpf0Tn0br6nk+G9ghuf50l0CAPnGe+h/8IF9d2cL1ed5tbdKcQwU0bSsZ9Zm2Pvp/Z0VqGjkJfwJsuD82Ntxv5CY80AvjcH+iE2sYPZ5AmKpvbWYiFhjpye73N18tqX7ufjI8YZFEoNaemyRLLmnqxCECEHFA5qf6k5e5dKV+rv1DkdT2GCcGASEJCEm1rt7Y5DnXHu3CpkjOf17JgAXBPoTxy/EpjtukWSWda7m129P0c/uxFVKub+0Ot1/Tser5ikQyzhTdc0CqL1jn+sU5EfGkZw3rM9BHbWN31dLuHIZhGIZREMCyiBXycGKQ5jb07VAWYSN3iCufVCyf5OFHlCG8sBgiuhCy5NBffl5DOVgyRQSS29+HfPtahshlOxYNJyyVj4ae7dodvuQW116wXXL5l0vaLpW+T9+HMI5esdW9IjIRkDtqpwhc2gHEN33aXruclF+9zW2D7j8Y8YtBvG44uabrF+dkwTIa1mfDMAzDKOjgIuAPiccb9E3dGIy8Ja5EKtZGhCEWT6yfbFf5dmPUelhh5S9OzDEUrjn68ceEda1qRq2PNReuy9CiuLZNHbngqndd3QuuHu/KEId+uwz1Y6VkCfYBGFpXf1LOxTmpc2fVoW74fccx5dyQfpdB01w57dI+FuPpT3aLnof9uCkoWI8Zxu85YLzbz8K5wvpsGIZhGIaRqFgIKsPIJPxBMJ/U2JhPqpGbmE9q4YPJXhpbNV79VYOhroxwCqRPqmEYhmEYOQ8CT2eg5zRMdhrjZX1inbIwtB9MPkLQxaoXhPqEbyL4PgKVNoLn0X7k1nVmBiIE0E8NOaUQvouoAsGoCtwDogME6xvhmEg1DMMwDCNTIK7I3NTx/o7O8svS//3+bgJUTkI8U+KHEiJKKVGhRDRMFLBOWW6B+D1U6C6umxBSGn/Vh1BYfr5/RDXhqorn0gRnhDHJBRIJE6mGYRiGEacgOhAfCqJJLZhqkcM6p2WsB/GP8a2R/nEqyIL1OLda/yhbNXOVy6MfNrx9qH4oagHVupxXr4PrpYzzBIPnu/SoE5ZGrZAIQMoUrkHbDLs3Wha8h5qPX8v0XpB5amSHkTHrKMRPJY4qx+g5oOqJVWXXhl3R9w9RXalBpWhc1LD77Ze5GLTJx7Kw7tcL3mvKptw2RT6484PocWH3o6BhPqmGkUnMJzVjzKfOyE140BYmn1QERjB3/3nPnidznp4TzT8PiBqGmzPKFR+Ws546/nFBtB0yJE356xTp/s/uLgQTx9NucLb7ofpBcH0/pauixxEnFYFFIHzaDp6H+0HmJoQpWZ6A7FME9w/2BzFGXNMTe50oX77yZZr7hZjz7weo4KQNPZaYqJrqNCjIEYB+alPtm1+POn7/9Po11WswLqzeL31vtC2/PxoCK9a95r0KS7Ea1kZek93vb9xaUpnRTnzSnMKPM8oSlulJ4dx+RqdY9TKC8Flku6KNw0EzZxmGYRiFBwQTopVJQ7d+d6sbUv/j9z/cUHFRbwgcAUScUQWxQpmChc8/hiFo2Lxsc5rjwLe8ab5+QCD74oYUoEEO1Q8f3zKIpVLBQhvMMBVEM1SxsO6DWKNNsj0tn7bcuQIgRsf1Gxe1LgbvB3A9mroU4UhMVOr5+NZfMl6R2jQzcL9pn3NjQfUFetj9RngiQCljP+lTOZefWjaz9zp4PwoicSVSfUFGBqWcypyEUHRZoCJxRllGzb0uGuTfMAzDMOKdYN53QFwdKld8WM76yg1TxJOCCGM7LG+9D6JrzZw1zprnc6h++MTKv+9Dv3dt3BXZSoXzk0qURQU3qAikTa6h/tkpYhdRiMC/6sOrXI596gTvIYKP/gL9p21fFMLyD5ZH/XD50+D7ldLPYH2F83POr1//Oo2o3rs19v1GqFJGuzvW7nDn8kVzZu51rPtR0IgbkYrlstP9H7pYpFgv1ZoJrKsFVK2rCFoslVqudRG5wbz3Nef/5OKd+ulQFc0m5bcdRtASS5/U0kpfKDt+6gp3TvYp/bv81+3TvrD4ufa137HKffy+6jn8e6PWYcq4N8H7YBiGYRQs/Nz9CB4/7zuWMoaFD5UrPixnvdahjCWjvPU+tNd7bG/Xjh6bmX74INaC+feDkBOfiVOIZx/Oj6WThXWF+lt+2OLaHNF2hGxbs032bdsXtX5yzxCjZWuVTXcP1VWAbfqv2aUQfuqTWrVZVZl0c4pPKu4PCkKRfiJSEe6cL9hndU+o0aqGe4WSFVP6Hrzfav1k4XoqNazkhun1/aMvtBN2r+kDFlOsxgf3HUx3PwoicZO7nxz5pz0z12WdImc9QossTst6NnJWUM11j1Aj/z456jVfPsJUc9l3fHBGurz3pCylLT//PXAOP9e9tg3UX9KnmZyR/AUi2L5vddXjPhncUXpc/56s6lwvXdv0qevdU+W9l3u5Y4Oik/oIR83TT5assHLy+XNPSm/cHe0rQtS/J4rff5IRcE9B2+KeGNkHwW8+qbHBp84wcgNE1syHZhYqn1Qj1Q81ltiNB4L+oUY4iOXsfH/jauIUFsmgSCXTEtmZNI0oTBx5oZTZsCtaF9HWZthsmZ/877D3pW9KrXmpIR/mDOwQFbVB9wEVjiow9Zwqan2RSrpUvx+0i0gNE7Ggwnn6E91cFikVtkB/1KpLHzgf+8LK68xe464TEYugV8jG9dqU/unKR88c4F59Ue7fVyP7mEjNGHvIGrlJdh9yBQX7/qQHi+TnL3yebpJRvIAVNWwymJGe7H5/4970sadKaUlqd4wM2zgo6k8atFoq5N8Py3u/qUlVOXbWKicUfRCBxyX/A9KhcIQiZWFg0UQU0qYKwUNBjn5y+QOiEcsvi4pVzks61d1VS8csV+gXwliv69lVt7t7U+mHLTJ012BXxn7DMAzDSAQQflgo41GgAv2ifyZQc4+4Eqm7qpeJ+qQqWCg/ve9Mubb1i86ShZ+lTq4KQv79sLz3tPHGxH7RPPosnAOrJUP1g8oMcWUQ5rcKCGX6Rr2zBk5z+fqDIC7x/1QL7fa6FaTP+WPdMYhhLLMqsCnjvOta1XQWzljlCv1CyLKfhfNwvaD9r/bVBrdtGIZhGIZR0LE4qYaRSfgjYMP9sUm04Upmx+IHed5z52VoKWHIj/iOTMaIV985rsWP61gQseH+xAcfVGa8x6t/ZyJ8j/KLhB3uNwzDUJj5qqFvNMbghOsnOJHIAyS7IDSnD5yepg3C5DBh51BDeesXrnczbRGo+NAxu5e++bAdNus3r2CmMjOW6Wt24b5z/4NwzxItFWNBR7NUsfC51lBF2UW/a7oEP98K5+Ezwuecz0usemFwDAIV/9OC9j0K+/3IDlm9Z4UBE6mGYcQtPIx46OlDFgsLYpBtHmiDNg2Sni/1dAHP/WDjWQWrSNfHu6Zpww/9kxHBGIVHH3e0i7OofeaVbcpzg+A9ikXNU2qmySOeVbjvNoO5YMHnl8/14Vj9EE7E5NR4nix+dqecQkNgaV/z+nsEwRS0YRzu98jIGiZSDcPIVfwffh40CCo/B7ZaRnnVMqwlO3/a6dIXkomFeIDsp62fv/rZWU4pJ9bhqhmrotYb2g+2jWVCtzV/dbBeRm2oZYO2sJZophzqkM9bYyQqZM0BtbYQRJ04kFrOObg+bZ92uT/arpaFXQuLbse6R8E6nA/oI33VHOTU49p8y42+V9wLbYN10Pq6rvsZ/jRyn7DPMe+D/5nU90rhveQ91XWtp5+dsM859Re8tMCVLfrvIpcrv81f26QTun57vLIdi1h951z0hbJgBqzsfI+C3xnuR2a+R7RFH/ldIX4rx4XVAf0e0S719L7Rt7n/nOvq+/eDOtqO//7EKlf88+v+sD5xHj4Dei/8viYCee6TahgFkU8e6CRnPDTTfFIzIOhTx493MPf4hSMvlI8f/Tjqv8mPLpZIQriE5Ren3A9Bw0ONwNgE7tbQL0VLFY2ukxUGwiw9PFT8nNyg9dgX1oZ/DBlfvnr1K2e1Bcqb923uHuIcR795ONDfRuc3kpUzVzprLH2u16meLJ2YWk/R69SHs99vffhpGW1n5h758HDTPODaN7+eX4YIQHDyPq2ZvSZqNdU2gNSLpK2cfMtk5wqBpY5+5oUfIQ/gwuSTqt+f1je0dp85fc9ifSbZr+9VML89bWSUux2ho76WfA+A99P/XvifW78PtKfHdxjUQeY9P8/VxzLK58X/TAf7TkIAEgPQNterMVGz+z1qemnTdD6jmf0ecb36+xK8R4f6HnFdvl+63o+Mvkt6Tgj7jvl99M+vaBmi2fedD6sbD2T3+2sTpwwjk9jEqYyJNfHD/+EPPvT4Mechyn7/4aIPAh5mlGdWpHJM2I85lkaoflJ1l46R9Ih+Pb9fwTb04Qn+Q9c9NJPrhYlUbafZZc1k8ZuLo9u88nAme8yGSDQO0iHysFJRotvBh40vJDK6R9qOQtpJ2gh7uILeU4Q718k1gl4nD3HKdB/DnX4/9D1ESOQmhU2kBgn7HPNZ8sWOCjLSafKeAu9NiytbpBE9wOeBnPbLp6b8KVMxPP/F+Wm+r2HilmP99vT7o59FPue+SI3Vd//7pN8z/7Oane8Rn0fKy1Qv4wQw9TPzPeJ74V97Vr5Hwfuk94drLV6meLrvkpLRd8y/Nug9prd7DfYJkep///z7GE9k9/trpk3DMPIdfmjD8osXKZEqpjIDFkn/IcADKSx/dbCeD/t48AMPn7A83gr9o30emD4IZ9rhwcor2woPlLC85TywKKM+D61gHzNzj3g4xsoHTh/pqy9QgYcyop3jyIXOA+5QueD93OeIW4Y/jdwj1ucYdq7fGX2veA/990rh8xfM/55RLnqFzwoThRjG1nOAfp71M8hnks+A/zlXMuq7jwo0n+x8jxCJN355o3R/prssGr0o898j73uRne8R3wm9v7xyPys1qBT6XcrMd6xOmzrO557zs2BdjdWnRMZEqmEYuUpmJiBhjQnLL85DiYew+lseisa9Grsff9rALyxW/upgvS3LUv3p1LrBPs6rebxjQR5ydR/w4aFC33n1CctbjvWDbZZFYxc5sRjsIw++Q90jfeCyTh0//zrHl6laxj0Y8dFTqxtWaY7nYc77gAXmULng/dzniHiuwcg9wvLSK4ghysLeKwVBhZVPPzu8/7Fy0Qfh++B/HvgsIvCwomr+ftql/bA/lRn13YfPPCLMF8OQle8Rgpj+UcY+6mT2ewR8PzgOSylk9D0CLMQsgK8srhfU1/txXOfjQr9LmfmO4Qf88lkvu/3abwjrUyJjw/1ZgPSrF1z1rkx/sluuphjVFKrBNK5G/mLD/RlTWOM8hg3/xRs8+DPySSwI8GAuzMP9YfDHzR/uL+jE8gmNFxLhe5RfZPf7G5eWVLJBkVFJ05UCWabINhVMbZqXNJywVObc3d4JVATrgDYjnHBh8bNkHS5klyKjVazMWoZhxA9YPbBCHk4M0tyGvh3KImwY+Q0ClWH8eMW+R3lPXIpUBFrJrXul/I+pwwK15yYli8Mqka2ch1SmGQngYD59BOtHQ892lmEWrJ4IV8SqL66DIDzbP/ZpZCs2pGHlmg3DiH8YEg0bZo0X6Ju6MRiJA+9rolhRAfGX2xPwDgf7HuU9cSFSEW1Bq+HycxrISaMXuXVEX6Uftsia9il59TVHvloxNVc+AlHL1BLrl1FPLbJs88o24vT8a/8nV3Ya5Y4rl7QjjZWU/UX3HJDi2/bJniopIvWX4yu6IXmFc3W7bYq0ffxTl0ufYziftqHt9hwwXjrd/2Gac2sd3xqLGC6zYVdkyzAMwzAMo3CRryJVRRyi7cYmzzlhiDUSktqmWCXYrjn/J9nSoJLsqp7irHygVBEZP/ZiZ8EcvuQWZ+FEAJZL2i7DNg5y5eznOFBr55I+zeTUf82T16b0d9u8sr2udS2ZOPJCGT1zgDtuR51yMmruda4OZSpGd9Qpn3zulNmFDMkjpFWAwtRnusucgR1k6K7Bbv+iAS1dG2zvr1BCiu36VSaMukhmPnKWPLvqdid4W434ItpnyMiaaxiGYRhGzsEEQp38FI8wGSwnUtsWVPJVpKqIQ7QhNhGGeyqnxHA7ULqYE6ZVlmyUOrPXyNo2qUNpvj8o4hYL595KpZxI7HP+2KiV8ugVW10bStAauv3YCs61gHIf39qKdTUWCFH6v/C6U6TH9e9Jkb1p21ErLpbV+pPT+9mU2rTbXdudVYe6elhh6bNhGIZhZBcmICFuDlfgMDGLCS/+MiaPMxrRh9wSkRpqikmPwHmIfODfL40YkJnoIrkBLhD4wQZ93ukj7y39Oxy4Lo30EY/EpU+qgjBt8vY3UnznficoFd8fFHGLlRIQuAjdkfNvcK4CO2uVc24CilpBEb6Azytta7nSaPx3UWsrllTQOkFBCwzNax8UhC4CmDawpC4/LyWwsg9iGd9TtaSyINyh9MbdUcuxYRiGYWQVBM7h5O7HB5OIA8RRJdA/6/3f7+8mCx4KxBNi+XDJrt8twutQwjIYI5UwVnt/2RuNoQqElyM8Vm6hfygyguD+ZBErjMSFSP3s3g6hIZ0oQ+gxrM4Qv4J4JRQU1scLrh7vykpu2RO1rmKZxIK6otvxbh9lLAz/Y23tMmia2+7bfYx8/pfTXNv4mKpP6vqTazoLLXXOGjjN9YE6atkF39dV28Gai8sBltPyyR/yKt9udPtpq8LKX9xxCNOGE5c6Sy2W1E/vO1Oubf2iq6cWYMCiSp8MwzAMw4+lq9Y+RFhu5u6PZWEL1qEf2g5tb/1hq0y5bYpLFco5OXdm+s+69kkttr6lzz+PXit94Tgt1/6QmWlkh5HRc1E/eCxB/onM4UPq1W/e+satcxyWVuKtAv2hX9oO56GOfx9pO1hGPf/++/eEe0RsVo4Lax8I7k+yBL0OvR+IahIt+G2Cf5/0PkLYPfDxj9P9YX3iPNxzLffPkdNYnNQsgIDEyoqozk1wZ2ASFoJa3R+M/Ic/EhYnNTaFNU6qkTfwMCxMcVIRIgit/Mzdr7DfT72pAibMwql9QFj5xyix+k8Gs8m3THaB9umjtgOISYL5h+WzJ04sQpNZ9/51fPfudy6LE5ZYhJUfT1aPpV2tAwheROrSiSmpjrG0arYqvx5om00vbZomzSqoiNRIAP41c21+P/1UrD5+nxGAYalYEbgk1qBf2ubpt54uHz/6cfQ+aTt6r4L3ADK6v7GueeZDM+W8586LWTdIdr+/cT3cH2+otVetnbkF7gz4uZpANQzDKJwgcBCtPV7oERWgPOjJOLR8Wkq+fSDTkQqXYApQBQFI2k6Eo+JbyLDksR+wziFCMiJYB1FGOyyaoz/IofpftFRRqdK4SrSPQQsngjZpblI00xnn4VrpC8PhwLFsB6Ge354K1DDoC3URqIh9bRsQgmoNxUoLiEvEJ9m01KKI9dVPcxq8/2Thop+aWlgJaz8jyDambfLKOXas3eHKuZ+grgqbl23O8B7Eur+x+lSrda2o20fwvcpJzJJqGJnELKkZgyXIMHKTwmRJ9UEoqFUypyypCEu1DqoVLpZlzz8/YHHUOkErn/YB0aTHZNR/te5RjhUXCybiR/sHiKWgpU+J1ZegJTXsPgFtq8VT2wLuB0LSb0vvK+fyLZ2KXqemTfUtqWFWz+D99q/Fbz94/yEjS+rUu6dGLdK+JTWje5CZ++tbUv3++J+lWCByzZJqGEa+wQ+QLbbk5lJYyc/c/YdCBU0wpzwiFYspVriD+w5mKn9/RnCeYD57hFksEE3qk1qjVY3QXPlYGbF6Ivh8EGQIVEQc907BNxWrM23MGjLL1aEPamlkH3Ua92osP87+MdpPJmIh/mY9MsuVaW5/2kbQqk9qWPuAmFfhSz0WwAqN8PTbLFurrBOo+l5zToQ/1xt2D5RY9zdWn/IKs6TmE8RDJUbqpJcukDOS33gmhxHSyohfzJJqFDamT58uM2fOlKuvvloaNGgQKTVyA8vdnz/4lsJ4xLc8x2sfMwMiNzt/NOPekor/Z2bSiCp+licWP4tTkGDmKl00g1VuwXlJEMDEKKIGzL2zndumPLtwnWGJALgWSxBgGEZ2qF27thw8eFBOP/10ufjii2Xy5MmRPYaRGCBQGbqOV4iPSpzUgixQD4e4t6RmdUY9oozQTWqVZJtYqeTWzwiE8NKLGoeGwsppuCYyXU1/ols0tFZunT94P4zswx8Ys6QahZHffvtNRo0aJf/9739l586d8uc//1luvvnmyF4jJ7DoGEYiU6AtqcHc/X4+e8ScguDSciygWB459tRn57ky9gchFSoB+2mfRTNJ6fGx8OOgqjWWfnW/eXK0DdbVEqspXf1sWCwcw3log75SVm/6imjsVYXA/QTwp4+X93hVKi3b6tqmPaBc75Oe34+r6t9D7Tv7SRlrGIZxOBx11FFy3XXXyZw5c+T555+XAQNSkpwYhmHkJvkqUlV0+rn7EWdtn/zMZZLC6rquVU0nMiGYC18zRpVdv9OVa7amMIrsO5gmb/+qzvWkyRvhgYp1eJx6LKBlpFWlb2SJKr96mwvGT50fOx7nAv1r1ivK/Lz/BPlHiFL+80nV06Rr9cGS+vqkK2RLw4quj5o8gAxaJBnwr4FXtn2xTT85F/eIftJfwzCMnOLMM8+UUqVSQxkZhmHkFvkqUsNy9x/x2++yvW6FaBpUskthdQS1EPq58Nn31ZUt3HosnNWydDGpvmBdNJPU+df+L03KVJ9gzn8mNWlO/R11yjsLKGlSNzar5jJIgdb3LZ1+3n+OW9azUWQrc3Dt5PZXa+qmE6s40ann5B5xbX6qVvqJuE3pYxG3bhiGkdu88cYbUqtWLfn73/8uq1evjpQahmFkn7ibOIUAQ4ip8Ko9Nyk6XI8gQ9TGyoUfBjPnYUftcrLh5JpRCy1LLD9VfDiPm7EyaqHEGprZFKVhef+DkOu/zIZdka0U2KbcR/1Tm772tRPBpF0Fta6qJRnBrNBPFd/0n+swDMPIbfr06SPvv/++81k96aST3PbUqVMje+OX/fv3y44dO2TTpk2ydu1a2b17d2RPWv73v//Jm2++KaNHj5YRI0bIc889J//4xz9k1660v+VK37593WSz8847T8466yzp0KGDtG7d2t0fwzAyR1yIVD93P8PlZFsi/z7WSHwqEadYDcNy4YeBBZN6LIAYxao468HO0nPA+Og+HcIPwiQjLJBYbLWNzE48Smp3TLq8/0G4FsSlWkgRk2wj0BHj15w+IupfSntNX//aWWG5BiICdBk0zbXft/sY+fwvp7lyRfvJfvqBW4RhGEZe0Lx5c3n66adl48aNzi3g/vvvdxbWIAcOHHBibfPmzbJ9+/ZIaVoQuBMmTJC33npLxowZIyNHjnT+sLHq4yd7xRVXSO/evaVHjx7StWtXJwx/+SX8WVG5cmXna1u+fHk55pjk39mmTaVt27ZOtIbxyiuvOKE6Y8YM+eKLL+SHH35w1xmrfs+ePaVfv35ugtm9994rQ4cOleHDh8u+feaCZRiZxeKk5hP+rHvEMtbaQ0UgMPIX94fFZvcbBRRCSSGoWCpWTD8y9MknnzgBpXVY2L7wwgulUqX0PvR/+ctf0tTT11dffVWqVKkSqZVKtWrVnNWReojD4sWLu2XJkiVStWrVSK1Uzj33XLe/RIkS0bosCF/aCvLyyy9H6/jH1K9fX6pXrx6plQp9Zf8RRxwRKclfbHa/kchkd3a/idR8Aitqm2GzXYxUfbVc/fGNiVQjqxC6CVEWNtHo888/DxV5DA2HibA777wzXX2Wf//736EijBinfj1AlC1btkxq1Kjhtn06duyYTuCx/uCDDzpf0yBYBf36+tqoUSN37iBYNLVd+vPee+/J5ZdfHtlrmEg1EhkTqYaRy5hILRj88ccfodaxxYsXpxFtLGwTqL5mzZqRWqlgsdP6/nHDhg0LFWFY7IJ1EamrVq2SOnXSp6rkvL640/VHH33UDT8HYRjdr6frDLEfe2x6d6R169alqVekSKpbUH6DCwAxV7///nuXzeqaa64JvaeFCROpRiJjItUwchkTqVkDn72gaGMd378wETZkyBD59ddf0x3z0EMPhYqwZs2apWub16VLl0rdunUjtVJhMo8v8PT1iSeekHr10kfBeOyxx9KIPF1v1aqVHH/88ZFaqaxcuTJd3aJFUyc1GulZuHChE6skCrjoooucYO3SpUtkb+HCRKqRyJhILYAw5H/BVe/K9Ce7uTiolr8/vol3kcrMZBVqvnhDsB133HGRWqkwM5l6QWF49913h4owZib79fSVSSRYEYOccMIJaQSbrmMRDMsD/8ADD0ixYsXS1OUVi2PDhumjeeDL6Letx9CGUbBgRj1CFVcBJjwVRkykGolMwopUZrlnNS0qMVCVOQM7HHJCEmKxz/ljpda8tW77p9NqyxsT++W6j6g/eUp9VD8Z3DHNbP2sQBzZMKHrn8fIPkGRysxkX6zpwiSTMBHGzGStgzDU42688cZQEXbGGWe4/X77rM+aNcsJwCAnnniimxzjCzZeOW/jxo0jtVK55557oqLOr9++fXvXVpAFCxakqRdcN4z8ZMWKFe6PFG4ad9xxR6S04FDQRWosNxvDABOpEYKCjO2McvcT/qnH9e+5sFd5KeI4b9d7proQUhp+i9Smlr8/Ngd2H5CD+w7Kb/t/k4P7D0bXi5QoIpUapZ99/OV/vozWc6/JC/Vb9G8hlU9Mf49Hnz06TX13nuT1fpP6SZUmVdKJVHwBdTKIL9ZeeuklN6Qd5JZbbonWQxjqeqdOnVxbQT777LNQQcgrYXMMozCQlJQkN9xwg3MFILxULHAX+Oijj9yDMFbs0ngGkWoYiUyBFalBcUZIJs3WtOCmU2VHzXJOpCK21Er6Td/mMumlC+S0Z+bKr2WKSbfbpsjEkRe6fb4g88UgEFuUIPh6fM35P8UM/4Rlsu3jn7p1tcjStyZvf+MyXtEO/SP5AAH31QJLcH2EL2XERCW4P68kFiBuKmlg3/xfX2ny1jcu7qlabFVMEtS/691TZdpT58oZD8+M1lHBPu+2NtH2gesme5d/H7XvnJfEB0suaZplkfr7b7/L7/t/Tyvakl9/P/C7VGmaPsTM4lcXp4g8T+CxfuJFJ0rV5ulDzLzW87V0dVkue+Oy0PrDWw6XHWt3yFHFj5IixYu416Ili8pF/7lIqrVIPxt6wvUTovXca7Hk12RBW//s+lK9ZfrZ0Cs/XOnqUcc/ju3S1UubT6ph5BNjx4517gBr1qxx8VBZghENSpcu7fya//Of/7ht3EHihSuvvFImTpwoW7ZsiVsxOnPmTOcy9NNPP7lF1wntFTay8swzz7ioD0x4Y2HdhHb+wb3PjgiMd/JVpPqiExB5771ysZx9x/vOTxOxFWYJ9YUnvpyg+4NWQ6278JqTpdV/FkQtl9QD6pJKNJj3Pxi7VIfSodWIL5zAJSuW+pSqMPRTqNImwpL8+iQSQEiTJIDysOF97fuKU2tFhVuDMYtkc42y8mu/5unaf71CCfljx345IbnOD2fUlaOTBfe6RpWlZaMqctGsVa6PoJbiJ1+Yl0YQqui8MFnkhom2f7f+t2z6blNUqKlou3jMxVLzlPSzod/p906KwAuIvIbJIjms/rKJy9K0q8fxWr5u/FkKTaQaRv5C2C6daPXnP/9Znn32WVf+1FNPyeDBg6PZosqUKSO9evVy2aHymyZNmsiPP/7oXHXmzZsnJ598cmRP7kMmLV9w8nrOOefIKaecEqmRSufOnaOik2gXvvgMi35hxBcmUnOCgEhVfAugirrpT3Rz4s0f7vctm2qhZJ9vhQ0TqVgwF13dSi740ztRv1PAOoroQ4xOe6BTGuF2xvQVro6KV0Trqve+k18qlpKKX/wkX13YWGTXr3JMctkRg86Qo7scFz037dHPq5KPI7fI9qNLyo/Nq0nJVb/I1mplpNtz50mDehXTidRX6z8jy1dvSxZtKUIN8VbsyCPk4Z6NZO/DXaL1uR76/cRz/+fqVflxm/xRqZQcvXmP7DyxinSpWloaJbevfdd+vb9xdxpB6K9Xjtw/IzYmUg0jPiDrFNEUWrZM+Y3DBxwXm/Hjx7ttLK9YLxGpZH3KD+gDbgpEpsCqi3Amtmz//v0jNQ4PXI0Qnbzivx6EZAizZ8+OCk0VnYhkEjQYiYWJ1JwgIFIRhCytnvhUNlxxkhOaWBixODLE/e3in+WYiUul+JrtsqLtMVLl/5Lk27OOl9onVJar3/7GWUV9kTrxholSfslG2Z0svLaXK+7EZrlvN8l1HY6VrS/2TOcD+p/2/5F1yYLz4K+/SdFiR8lRJYs64Xb5u5dL+wO/Ry2miEgE8k2zVrl6iMEtp9WWYkWOlGO+XC9VH+wsVc9rEBWDaul8JXk/AhAhyLSSVm99I8v6nSQHq5eROsnXgNj0g/i3eeQT+eHiE6P9UxDxuDSwIDw5j1qXfauy3ovSyWJUrcDszw+f20TERKphxB9MmEKkEvLMj0qBSH333XfzxT+VcyNSEchqzcU94frrr5eHH37YbWcVfHJ9iyhxbxGff/vb36Rv376RWqkgXo8++ujIlpHoFAqROnfu3DSziHWd8DXM+A1y++23R+v59QcNGhRa/8zkmzi/fIkUi2WyMDyqaLIwTBaFV0y4Qo49I1VAqU8q0fL2HVNejixdTHY2qSp1F6yT6qt+kZ7VysgJLWvItGHnpBGpC15aIPU+XyunjlooZKxHGC7v00wWJwu4Ou3qpJvF/9Lk/rKu83FSduevacrV/xQxqO4Ivk+qLwB9oakiFTHoW305Vi2gvij16/ttldq0Wy64ery899+L3HVxTvL1+xEH/PZzyyfVSIuJVMOIP5gwRaKG5cuXR0pSYagd8tI/VYf3X3zxxTRWXPw6sWKOGTPGbWP1RWySdMEXnwMHDnTJDYLgG+pbRMuWLRvZYxiFRKSSjo+L9GcSs/zpT39y/ipB8AfSOsFjwgIy/5x8E5/75V5nWTyy+JGFPlyF78oQ9IE14g8TqYYRf+iEqVhhp9iPH+Y777wTKckdhg4d6vrB8P63334bKU2FKB7ABCXAmIMPLcLTF5+sh6XRNYyMsOH+nCD5JmY1BFWig/Vz+bkN3Ex/y98f35hINYz4IjhhCvbs2ePSrn744YcuoxVpaTGcMIkoNylXrpwTCv/+97/lsssui5Smgi8qsYbDBKxhHC4mUnMCE6lGAcZEqlGY4SEYb+CXyYQpMlXNnz/fDZfjcnbUUUe5kTqSW+Q1nLdixYouLvLf//73SKm4dayt+dGnnCIRRVCiYCI1JzCRahRgTKQahRkegvGUEemXFb/IyNYj5df9v0qFYypItZbV5PizjpdmfZpJkWxm7cspxl81Xr4b950cecSRcsnFlzh/UnxRr7/xerl3172RWgWL7GYMMvIGE6k5gYlUhz/jHswXtWBgItUozMSbSIWDyb+l+S1IM+Ljhz+WBS8ukF2bd0mrlq1kwcIF8sCB5N+RAoiJ1PgmUUVq3KeHYHIRfpuZhRnzA9qMcDP5FdYpY19m4Zycm1nyTGoKw826T96fVchyRVB/ZtuzkIWKc2WXWP3I6r0zDMMoSMSzQIUz/36m3LHuDpcAZc3uNVKqbCn5Iw/tQoZR0EnIHGb7ji4pVZZsjGyJW6csO2DhjBW6ifLsWECxnBJ6Sklqd4zUnpsU2co62e2HYRiGkfs0uayJ3PTNTXL1Z1fLEUcW7qg2hpEV4kKkqtVSwTLI0CoL2acULKFaflG/d9ywOcee+uw8V6aWUrIxkV+f/VBn9hpXpvjtqwWSurRJGVbXcutSZoL6faOuHse5aIdXjmWfHs/CPr9NPYay4jv3u/z8CutlNuyK1j9+6grpfvPk6HmxBNO+nkfb075rP3Rd9/v3zjAMw8hfKp9omf0MIyvkq0hFWCGmOt3/odzY5DknDist2yptn/xMhi+5xfmvrmtV04k6IGA9ZUN3DZb9FUpI+R+3uX1l1+905ZoG9OeTqsuOmuXcfhV6lAGCj0xSwzYOivrHIuyavLFYdtQp78oIml9+9Ta3T6EOsN8/l1IuabvzMWXf6JkDnLWUTFXjx17syriemgvXJQvNA254f0+VVJGqaP0V3Y53wffVutpwwlLZ0qCScxMA7QNov4Bri3XvDMMwDMMwChL5KlJVdM585CwnrEbNvU6O+O132V63gsuUBGvb1HGiDtSKOKjMEKk/eZkrY99XV7Zw6z46hM7CukI2Jyyrd1Yd6toiKxNpTEkzqtZWYpUmtU09BqiDUIwFAndTk6puHcso/VJfWM6DCC++jUz+mYO26BNt8LqsZ6N0faC/moIVuLZY984wDKMw8fGQj91kHxbWc4q9W/bKpJsmuVfDMHKXuPNJxcKImMPiCIhMrIFYRBFciFosqaT6zAhEHpZLFhWPQPuIVrWksiCWEX8q+BCGdeascesKPqSIxayABfSjoWe7cyDCsf4eKFU0RcAmC0qFXPu7qpeJbKWAUKZPTV/72tVnmz4cN2OlG/aHoG9rrHtnGIZRmEianTIKRTQCljMHn+m2c4KSlUpKjxd6uNcwEK+I4oN7C248VMOIF+JCpJIWlHzzgBhj2FwtnYhMRBrWwSrfboxaJSus/MXVjwXtMNzNwrrC+qf3nSnXtn7RtXXrcU87AbykTzMnACkjjz8WSR+dPMV+Fn+YPRZYMi+46l1Xn1z8SnCiFOIYsak+qepfyvHNkkUq+fiBPhAVAEsybWqZEuveGYZhFDZ2rt+ZRigufnWxW2DL91tk7tNz3evwlsOdtXXMuWOcwETgqgWW+mwveGmBq6fbvHIs5RyndSl7+ayXZcYDM+SDOz+QnT/tjO7X9ukTx00fOD1aZhhGOBYnNR/AUttm2Gz5ZHBHZ/XsdtsUmfpM9zRi2og/3B8DixNoFFLiMU5qRmDNRCxe++m1UqddHSdKG3ZvKJVOqOSE5jZv3kGzK5q5V0TmzIdmynnPnRe1lNIOgvecYedIkZJF3Ha9zvXc8YvGLpLeY3vLns17ZOGohdLpwU7y3bvfSYW6FaRGqxpOqJ50xUnu/CqQa55SU97q85b0eL6HKy8oILQtTmr8YnFSjRwDMaoToXAJwPppAtUwDCPnYIj/1u9ulXn/mucsmr/u+lVKVS7l9q2csdIJyfrn1HdCUy2a675YJyecd0JUoGL15Lg2f23jBKpaZis3qiy7Nu6S7s90j9YtE3HZ2rpyq9u/fc12KV62uBOrPgjaE3udWKAEqmHkFyZS8wn8YBmq11fDMAwj5ylfp7zs2bLHic2ipYo6K+qaOWuckERg9n+/v7To10KWf7A8ckQqB/YckGJlikn5Y8pHt4FYp7s27HLrCNe5/5wrtU+tHd3PeXwQwN9P/t5ZUbHAYok1DOPQmEg1DMMwEgbfp5Rh9VYDWkm5WuVkw9cbZEjpIfLVq1/JMW2PkR0/7Yj6o2JNxaqqllXKmMG/4asNrk2sqLB5aUpIw90bUya+TrltimuzbI2yUcsoAvj1Xq87qy0Cl/1DqwyV0/5ymhO79EMtuoZhZIz5pGYDJjYx0x+f0q73TJXPk398dOKXkbiYT6pRmCloPqm5ifq0qi9rYcB8UuMb80mNU/xYpCyahSm30LilCFSC7yNQG43/LrI36zCj388u5RPMxGUYhmHkP+rTahhG7lIgRaov3vxYpCzksEdIahrRWHA87WSVKks2ulcEKhAai1iknDM70M6U588zS6xhGEYBgUlZNvHJMHKfuBGpGiPUt4j6ZRrPlKF2TaNKHeKLEtRe4RhCOpFJiniixDNl0XY19WrPAeNdO7Rb/csNri0Vmipgw/pETFM/6xMiU4Pzcx7NvU9dhT6H9YPzcQ49t38+9pdbtyPSgmEYhmEYRuEiR0TqQw89JE8//XRkK/No7n6EWaXvN7uMTGSTUoso+fQJXs/2a1P6y6n/mueC7msaVeowM570oNoOEHN0zsAOri32s6il9ceOx0mZ9TtlwqiLXDvPrrpdtpwQbsUk93+wT+BnefLhPOTeX9MhZbY+wpOFJAG7apSVViO+iGa6wvpLrFQfrpf0qux/Y2I/Ke/F8TMMwzAMwyhM5IhI7d27t0ydOlXOPfdcWbJkSaT00GjufoTdhpbVnX8nFlK1MuL7ef61/3MClPLqC9aJpvz0URFKvNEe178nRfamraNimAULa2ZhCD7Yp8yAdRVrK64BLAjtI377PZoWFTZFUrX618P1IriBuKlJbY9x64ZhGEbWIDA/WZ38rFM5gWapYmHdMIzcI0dEapMmTeSDDz6Qrl27SrNmzbJlVQVEIZZNrJytXvrCCb2JIy90ApRl1NzrMgx6v7tqaScEfVTsqjUUC2sYzq80kk/fz3kf7BNWVM3xDwzRU5e8+T7LejZybggspDdlP5ZRrLOQ6tuaGk+P69W26XedOWvcumEYhpE1yCzV9fGu0fBRYWia06xAwH+yRd345Y3uHIZh5B456pN6xx13yOLFi2XatGlZtqriB4p/qFpNyW+PpRWBqVZQ9fPcVb1M1CeVRff37T7GWT73Viol5ZK2O59UFYOa775aJO4dorHhxKXunAhHcvzTJnU0531Yn7CA0ifEKaglFLGJz6laXH0xjdBle/qT3Vwfaa/LoGky9852kRop4MqAawD7+5w/Vrbb7FHDiDu+//57admypQwZMkS2bNnifutuvPFG2bvXcrDHE1g5SYUKvGJV1fipKk7H9R8nIzuMdDFRsbiS8lTrsF/LOJ6ymQ/OjB5DuR+T1c/D77ejOf01JqueyzCMQ5NrcVKfeuopueuuu2TYsGFy++23pxQmSJxUJlUtvaixE5+4EgCC2khs+PNgcVLzH8Tggw8+KAMGDJATTjghUpp3IFKnTJkS/V1DqL7wwgvu965kycRNbxzvcVIRjATqP/GiE+Xb8d9K6xtay8qPVkqb29s40VixXkUX1xTBGMyzz0x9jie0FDP3EZsfDf5IzrzvTPn40Y/l2HbHRmOiIjr1GB/OoZmktB1AkCJuSSqA5VVz+AMpVOkXr1o/XkFgW5zU+MXipGaRoFX166+/juwp+CBQiY2qrgRYQA3DyBsQgo8//niGAhUhmV23I6PgoQLzpCtOkqT/S5IeL/SQIsVTh/nJ/ERKUtBMUEEIzj/jgRlOjJEhKmluksuzTzYpMlGFgeBUiynHAu0gPBVSpZJl6tnGz7p6WGIRpYheRC3rvCJyDcNIS7L4PtIp8NxY8E9lQhXLhRdeGDllwQcL6mf3dnBD+Mz415iphmGkwFC4/g4wFL5169bo8DioiMQqyn6tS51g2YwZM1w59f1t2po9e7YMHDjQDb/r8ZTfdtttcuedd7pyzkU9bY8/zdShnPqci7Kffvopel49Lqx/RvyBVROhhyW1zul1UobU92dtSB3raOeHOjtrMYvzOW0Y2+cUaysCc/Duwa4+xwLtUK6Qx7968+py63e3RtvGaorARVgjaH3Lq2EYqRyJeTi3lueff15q1Kgh11xzjXuwGIaRmCDoEHYs8+bNk3Xr1smmTZvc78Dw4cNjDoOvWbNGypUrJ7t373Z1Bw8eLO+++660b98++jvSpk0b117VqlWj2z47duyQOXPmuH2wdOlSeeaZZ5yr0ZdffimVK1eWsWPHRvtz//33u+F5QLwiaN9//32ZNWtW9LxvvPGGjBo1SpYtW5auf0Z8glDFglqva710ltRYICjVJ7VGqxpOMKpl1AndfbGFbslKKZ9pcvNTf+O3KfMf1A1A21m/cL20v6e9y/OvZVh+saQiTPXVMIz05MpwPw+Zk08+2f3wjxs3TkaMGCF169aN7E0sGPK/vMerbpIVk7iYPGUUThgtqFixYkKNGmQWht4RhCynnXaaPPLII9KvX7+oRTIWHIdvadu2baMWzpUrV6b7vahZs6acc845ka20sE9FcL169WT16tVuXdm8ebMTmqVKlXLbjRo1cq/79u2Tbt26Rd0GOG///v2dxbRx48bORal27drp+pdoZDfOdbyD/yf+qMCrzsRHXCIKmfWPoMSy6URt8jaCUa2dlJU4uoSrq4IUqKNClH1a/5LXLwktp4zj+7/fP02ZYRiHJkdF6ty5c6VHjx7y2GOPOWvFxIkT01k9cpNghijWdRZ+bkFa1jl3t3cuAMzWJ+RU8JwIWWb9a780SoGRGLz33ntSpUoVZ5VjaJhXtikvrFSqVMn9Sf3www/lrbfecsPmu3btcoIRvvjiC7cNKnCxfo4ePTpUaGYEVlbahzCBiyU1KSnJWW0BSyuUKJE2XB3nHTNmjLOYstB/riPYv0Qju3GuDcMwcpscEak8UK677jr3Y9e9e3f3ALrooosie3MXTTkKNef/FM1QxUKSAPxF/Vz/schMnSCIUcJVEZ8V8FEldJXGQlUQsmSY0n7hx4pwRaxmJKIzU8fIX7Ca8llv166dG05+9NFH3SvblBdGqyrWRgQPFknEOuIPC3Pz5s2dhZJyrJRlypSJugmo9fLUU0+VXr16yWeffebK2MeQe0ZgJcXSSX3g3iNMmbTJ8QjjBx54QPr06ePqYOW96aabXF2fK664wolc6rDgfxrWv0Qjp+JcG4Zh5DRH7N69+4+gvxg/zPhj8SDhHzZDYvh0YVUIg+Gi3377Te677z4pXrx4pDQEfviTRVoQP6QTIDqv7DTKrS+46VTZUbOcm6jklxOUn+xMuv1N3+bOktnqPwtk+hPdopOZELFkrQKOoQ4xSGvNW+vKRs8c4ALo+3VolzINK6X9O2n0omjGKs730f/rmiwip7s0rBoXlfMR8B/h2vXuqfLey71crFYsrJpWFdFJZqymr6VEPKAPoNfy02m1Zdybl0mXe6enqUObxFlFBHP+SS9dYJO28hA/BBVW0muvvdatjxw5Ui644AK37pOZOsbhgdUaf/e89BXl9zFRQ1BhSWXC2RFHHCH/+Mc/nIBVEOoMVRuFE3xpGWEw4hO+n4n4/sQUqQjP5557zglTLAqdO3d2FoowDh48KEWKZEIsBUSqLyABcfbeKxfL2Xe87wLfaxxSwjwhLrvdNiUqCLEwqphEFJIaFbCGIuQI+E/+e+oGRbCC6FXx6NehPChSV3esK61f+DyNIMXSSf79TwZ3TCOK/f4oKrBVXJIEIHisote2qUnVaB3oes9Ul6xA7wtYfNa8Q0Uq1tEJEyZIz5495X//S/38xiKr9Y3Mk18iFavs6aefLjfccINcddVVbp3Y0AVdpCoa5xqhSjhB4CFoFE46PdBJZj4000RqHFPoRKpvKXj11Vedn1cskZppAiJV8QUiIvPUf82LWkPZJiYp+9WKqEwcmTKUGiYKOU4tmaQz9dv328FymhmRyj6yVGGFLbNhl7w2pb/bzqxIVWi71YgvnBUW0avHBgU7llNfpCJqfQswaN+NvKFxski9MTKakFXLqG9VZbY7rjGGEc/4VlXi0rZo0cIsqYUYs6TGN4kqUo+Mt3/+CL/i2/Y5UQalN+6O5sYnLemwjYOivp0ZWRGpvy+Qxx8QvAhMjtdh9jCw3gLWUs2hjwV11NzrZOT8G9zQv6J9BQSs+qiGwb79gX5xDs43dNdg1y/EZxDSrm44uaYMX3JL9PpNoOYtA0qUkD/++ENWrFiR5aF76uO3zdDwpZde6n5QbLElnhf8U/HrTbQ414ZhFByOZLjMD2SN1TSvwd8UCyYgBBded4rcWXWoG149a+A0NxmJ8k/vO1Oubf2iKyenPlZRrJYMozOT/+QXv3D7WDiedjjOz/WP0NUc/do2+HWwYB47a5Wrozn0S/ySOkOftrc0qOTa5hWfU8DXVAU1fbvm9BHulTa1X1hxGbLfW6mUlEvaLoPKDIkezzp1qn21wW0jTLUOk8JmPdhZeg4YH20Lq6yRd0zZt89NyGES0OWXXx4pzRzUf+KJJ6Rhw4byySefuH+8ttgSz4vFuTYMI7/Jtdz9oST/O8cCmBUQYv6ko3gDEYp1Vid2xXNfjcODPwbJT28X95cQawR4v/nmm2Xo0KGRGukZNGiQe9gzkx3fbqyphhHPEOeaKBXEn7333nujYQSxrtpwf+HFhvvjG76fifj+xKUnvG957DJomps0Fa+oBbj6lxucQI3nvho5A0Lz559/dgIVAVqtWjUnXH3Yppz91NuwYYMJVOOw8EN7HSpJQnbI7zjXhmEYQeLekmoY8YJaUoMwlP/2229L/fr15ZZbbnFRMZYvXy6XXHKJvP7665FahnF4qCsW8VyDk1sPB+JcYzmlPcIIhsWQBbOkFm7MkhrfmCXVMIxQEKJbt251ueUJhcQr2yZQjZxk48aNcsopp7h1fKPJ2KWZtnwQsAMHDoxaXXnNKJ3rK6+84nxPSWQQS6AahmHkByZSDQeTvph8hl8tfrbdb57syozMQdYjJkTxoOeVbcPIL0gDSwIWLCtk49JUsGFgPX344YczTsRiGIaRDyScSMWfVWe9E3uUIdqL+7wtPf480Ymv7EKYqNzMv5/fwlBTyhLfFT/bda1qurLsEut6Ej3Va4UKFSJrhpGzYDklxWtmaN26dTRDIGlpMyJTiVgMwzDygQIvUoOih5n1CC22iT1KXNV33rhEJv37/Ogkp+wQln8/J6FvU54/L5oUIAxEd26FnWLSF+G8lLVt6kid2SnxYbNDZq7HMIzMQ9Y//EdBLaOJkuHKMAwjjLgQqWR0Uisn4hLRydCzWi1VmPGqZVg1y63Z4VKlkk+fWKLspy1m2pMbn3Jimh4/dYVrE0FL+8G21eLKwj7qaFuch7Kdtco5IedDn6mjqIiknDiu/jn8MtqsM3dt9Dp1W9viFSukfzwLGak0JqzeJ63DOgT7zb3Q8+pxwf5xf4jv6ichcEkVksv0PFybLgrnoa2wfvj3xj8f75dhGFmnVatW8tlnnzk/00ceecT5j8ZDnGvDMIzcIl9n9yN4grn7x715mXS5d7oLxI9FFNGloZ383P1+uZ+aFGFECtPtx1aQM4bMcvsJiq/rWEQhLFsVgkzz45PpivBXb0zs584HnNPPv09qVY2RClwP1khSqoKew29XrbkItwuuHi/v/fciV8a2toXQI0kAxyOs9brpu6Zc1etXiy7HkO/frUf6zXWH5ftX/P7p/dFr5bzBlK9+GddO+trvz28kdWetStcPBC/XM++2Nu4Pg/9+khaW+1fQrKyI7LDZ/YZRGLDZ/YUbm90f39js/lwAkYRonfnIWS7dJylH91YuJTvqlHdZn8ClES1bXEpt2u3SiSK8QPcX2ZuakjQz4ALgD2uDWgKxxtafvCxSKtGMVQoii/5SjvAqsi/cr1LFn1oWSZtKqleskz7f92wUFa1BtI9cL9fN9fsghBGyCsJQxbH2m/NWX7AummGLPwRcf7B/mYU2eS8QqLXnJsmSS5pK2Z92xOwHaMpYfb945f01DMMwDMPIiALjk4rAK796mxNIoKlED5ZMEa2ZBUHliygsmAgvxCe585ef1zCyJzZ+/v1y63Y4SyTLcTNWujJQAc75aiQLxTChmRHax1gCFxHL+TgvBH1KAYEbK9+/3z8mSOkfAcX9KUguC1o7sVKfNHqRE7sIzkP1Iyiyed9I9WoYhmEYhpERcSFS/dz9scCKN/3Jbi73vbMARjJRIYI0vz1DyYdiSZ9mTlTRBn6SWEOrfLvRbWNxrLDyl0jNtKi1lUXz7285obITkJybY1W4MqyudRnaXp8sFKmvfcc3NJYVFhCHNReuc3XxqVXLKOJPfVLXta7lZuNzbuoBll4fBGZYvv9g/xCbSe2OcdZRBXeHXdXLuHWuXS2uuFFwvxG39IlzZtQP+uBfO+czS6phGIZhGIfCMk7FIQhChs2DojM38f1NIehDa5hPqlG4wefNKJx0eqCTzHxopvmkxjGJ6pNqIjUOyQ+RCjrxC3A3UN9VIwUTqUZhxiZOFW5s4lR8YxOnjDxDY73mNYhSzstiAtUwDMMwjPzERKphGIZhGIYRd5hIzSIMieskooIIs/BJFEBUA8MwjMLKlu+3yLi+42Tvlr2RknAO7j0ok26aJEmzUyeWxhtcy/SB011fDSORKHQiFXGmOeURm8GIABmJOCYXEXpJJxf5s+SJFJDTwi+sf4eLzrYn0H6QnDgf90AzTRmGYWSFj4d8HBWDi19d7PwgJ1w/QT648wMnxLIL4g0R57exbMoyNyGoZKWMU8uuX7hejm13rNRpV8cJ2jHnjnF982Gb8kMJ3tyi0gmVpHrz6q6vhpFIFDqRymz1jHLKU87+sFntGpuVOipYia3KZLBnV92e4zPhD+WbSh8QlhqjNLMQRoqUpxxvGIaRXyDqEKZqATxz8JlODLK9deVWGbRpkPR8qaecM+wcJ8SyS5GSRaTr413TtNHm9jaZanPljJVSoW6FyJbI0ccdLRu+3hDtM69sU54bBO9RLGqeUlPWfr42smUYiUFczO7XVKaIPAQX2Zyavva12zdnYAf56soWoelHgbihgPB6bUp/t05MToL+k2Z1+lPnunSixPZkxjrbx85c5drivATjP/mFz91xo2cOcPFHNUUoorTO7DXScGJKOtI17Y+V34od5SYV0c+wME3+tfhhnWiz7eMpFkZNq+qXTRx5oZTZsEt+LVPMpUHVbdoCUpCSParWvLXueNKkUk/vE30nyYBeu94PTQ9L7NVO93/o6iF8tZ8E5ifmKdcUdj+oi3VV7zP3VFPFhpUTtF/fK6yq2h+9ZpIT9Dl/rLsO8O8575F/PRkJ9PzAZvcbhZlYs/vnPj1XGnZv6AQfQmr2P2bLzvU7Zf6L893+az+91glPLKQjO4x0ZfW71ZcLk3/jPn704zT1EFn1OteT+f+eHy2/6sOrZE3y7/CpN50qRUsVdVZV/5htq7fJuP7j3HbrG1o7QQt+vYza6D2mtzS7opnr39LkZ8Xyactlw1cbXFtnPXqWfDr0U2k1oJW7PgTj58m/j7/u+lUa9Wzkrgvr7DdvfePaon0Y12+cLJ+63K3Tx1KVS8lbfd5y7WpZjVY10l0LHOoegV+n99jezhqsfWt3VzsnynMam90f31gIqpwgIFIRm8Hc/YjIZq9+JdOf6Ba1diJ2wkQq2Y38UE1hwpFjs5Ij/6PHukrr4Z9HRaqfv1/P659PBXVQ/PkidX7yD1eXv013wpJ2AIHn594H+gNapm1B17unynsv94r2A5Yl/0jGim3KdSJsCebPdRFw35+x7/dTCbsfn/y9k5zx8Mxo37Xf3B/2B8v1DwU5+/3+aJ/9Pugx9D+Y3z94b+IBE6lGYSYoUhniVnEIvqg66YqTosIUSyTi7aPBH0mXIV2coPLLfWGlgrf8MeWd2FVRqevLP0gRfojKIAjkmQ/OdIJy3RfrXJnWU/EcbMM/Zs/mPfJV8rNHRS7lzZP/XCNcOc4Xgo3ObyQrZ6501lj6XK9TPVk6MbWeotdZsV6KUcXvt7oMaBltZ+Ye+WBhRdSrK4KJ1MKLhaDKBRAsiFY/d39Sm9pO2JDBaUCbERkOSSNiEDOIB0RQjuTI37LHbSvB/P0+iOjxYy92Q/5kUkJchbG3Uikn5rAgqu8qVl0EoQ/WTkReGNvrVnB9BPqMq4FP8NqxoNJekeRyMjwhaDND8H4cvWyze9Vzb4rk4MfqGVaumbToD5Zf3kfeH/6M0GeunXtAmVphgT5qGy7tbHLfDcOIXxBXiFZE3a3f3Sr93+8vJSuWlLI1ykrlRim/t1gQi5Up5gRg8eTvNIITdP/BDDLvhYELgD/0Dgg1BNSQ0kOcFRTC6in+PsQcvpz0D/A9pYylTCTjXhjl6pRz1tSty7a6V7YVLKvDWw53fVKLpwpRyugvBPuY2XukvrosMx6YESk1jMQkLn1SEZT4eE4YdZG0eukLVxYrRz5CFaHL0LgKp8PKkZ8sKGOBgNP6PohVTfWJrycpRcHPU4/QRYSPnH+DG2LfWatcOqGZEeVXb3N9hDCBq2JR/WYZYqcvByPlPtxD9gXFPATvxy8NK7tz0x5o+1xvWPnBEin/4OnPhpNruj8fvD8svFdYWXFDYBvrs2EYiQ9idXvyb+H2NSm/h5uXpkwyLRL5vcgsWCQZ3lcQhIhgxPLg3YOl/tn1XXmwng/7sFACllT8SelfGPRPRbYPQpJ2Fr+52L2qsAQmZF36xqWuTzo8DyrqqY+VNNjHzNwjrKWIW66Vtjo/1DmyJ0Xk0tfcsKIaRn4RFyKVoXe1dPqWNqxw5JR3E31CcuQzPE09FvLvk0sfK+zh5MjfG+PHCrD0ISwReX4/WYChatwPsBBSpnnqS27Z46zCeh4E5opux7tj9PhYVlgFSyqWWOoi0pf0aeaEICKY+1Jz/k/OWot7AnW4B9wLFa8+KnbZxz1UN4Ow+7GlYUWZ/mS36D2lfYb6Ed1h5QrCHVeDngPGu/0sXCPvp1pXzxo4zSymhlHAycwEJIavmUmPXyYWwFmPzHLD2Ig7/FexgiLcDkXjXo3lx9k/ujawVmJl3JL8m8z2iLYjZNuaFNEXrLdlWapBwLdqcl4sqRn1v/aptaPuAz71z6nv+s6rD/WfbfxsynUOmeWEo2/9XDR2kbOSBvuIyDzUPVLhyjp1NiY/9xSOL1M1tvXXMAoilhY1i4T5cuY26l/q++keDmH+ocahQVibT6pRWIk1cSrRyW1fz5zA963NTMSC7IAoNp/U+MV8Ug0HApUh64IKPr5Yg7HEGoZhGBmDFZih+XiOQUrfDmURNoyCiFlSDSOTmCXVKMwUVkuqkYJZUuMbs6QahmEYhmEYRh5hIjWPYdIVE7oONVEqnqHvOtnKMAzDMAwjN4h7kcqkISYrZQUmBumM8tzMqU+75PlHePrEKgdm4RNYn0gA+IfqrH+WnBZ+nJ9+5PT103dm5Qfbzei6swLvd0732TAMwzCMgsURyUue+aQSqOnILPo0IVb8bFOHQrM8kcUoJ2bCZwR9y+qse4SoZslCTPsZrPKD7PYBkU5MVT9CQHbuRxj5EUEhM5hPqlGYwefNKNyYT2r8kqg+qXGXux8QQJqNaMFNp8qOmuWcSPXLyelPcHhEn58Tn1ihHR+cEU3Hqfjn8IVsTufU53gC3Kuw5rx67JQXzpdq3/wc7RvXE0z/GRTlKiL9vPxAIHy/jJSy4968zKV0xcpJnv7X3r9S6s5aFU3x2uTtb6T+5GWuPvdPY7pC2LXrPaafdWavkYYTl7q++NdI+lNNaUp/wu4HgtV/n7RdLK6aVha4t4he/73yj9PUs/7ngOsmbW3w+vxz5xQmUg3DMIx4xCZO5QI6LI+g0jSolZZtlbZPfhbNVLSuVU2XHQlhSXD8YRsHRYVuwwnfu2D2WkaKUhdk/olu0uHRj13bCJpYEGQ/eDzD8cA2C6KJ85clmHJk24esS4gk9jGM3+SNlHzMin/s11e2cAJSMz0huBCK9BM/1YyGyWvPTXKiWvu1rnUtJwg1exPZrEhEwPXsql7Gla3pkNY6SkIEva8KwhDxF3btoPcPgcp1Us8XfqxTppbYsPuhbQTbZR91KCO1LIkE/GF+/zjeI95/PgecS9v6seNx0WxXen20RcIHFfSGYRiGYRQ88lWkIvgQGn7u/iN++91lVyLLFKxtU8cJO1KdYs0jExKiDutaqc170uXEBxVO8ZBTP6NjQQUXlkisirEyZKk45tqxLkbTuAZSm2aUp599KjC5Rk2BqgSvHQGtdegffwAORdj9iNUu+6gD9Is/JJpSFqjD+8w1877z/vM58H2O1coKCF7aYcH6bhiGYRhGwSXunIwQXYgvTd2JBVHzzJNSU62eLAi3YE583xrpxEo+59T3oT8quIMwVK7pXsut2+Gug4UUqIqKes5RY8E6Vz+srVhwzXp/fIGosM35tA6uCME6CvcSi22QsPsRq132sQ7sw5LKfVCog2uAvt/PrrrdfQ7oO39AKGO/YRiGYRiJR1yIVD93P6IRq51aTBEubog8ufzT+86Ua1u/6MqxfNaek5QuJz5DvPmdUz8jENoIb8AiqufRXPtbTqjsRDr5+HGBUOHqWw/p//qTa7r6mjs/xV0gRRzGgrY0bz5wXxCC3BeOx4UAayTn9uuEgQDlWMQlx9I/CLsftBHWrm8dZh+WVN+PmDq8J+xn4TxqpdW2qn21wW0bhmEYhpFYWMapPCYvow/4ILaDk7SyC9fARDBcJTLjApAoOIFtE6cMo1AyZMgQ6dy5s7Rr1y5Skpann35aunfv7tZHjRolDz74oJQsmfr7uGXLFnnhhRfkrrvuSlMeC23vhBNOiJQYRmxs4pSRIyDqsA7qJKWCSMMJSzPto2oYhpEIDB48OKZA9UFUPv7445kSooZhZIyJ1HyAYe5Yw+i5BefLCSsq5Ef/DcMwwti7d6/ceOONzpLUsmVL+f77793COmUss2fPdsvAgQOj5VhGwa9LO7QH7NfjX331VWfZpK5/Pt3nQx3q6rq2ff/997sy4Bg9Xs/pt3vuuefKhg3mymQYJlINwzCMAgPD5og4xBzC891335X27du7oc433njDDbXPmTPHDatTxqIW0B07drh9Oiw6Y8YMV5/jKKMd2qNd0OOvuOIKtw1YSIcPH+7Kv/vuO/n666+jwtaHsmeeeUaef/55V7dfv36ybt06t4/2KNu9e7eUK1dO1qxZ485bs2ZNVz527FhJSkqZu2AYhRkTqYaRQzz11FPy0EOF2+faMHKbSpUqyfvvv+/EHOJz5cqV0r9/fydaGzdu7ERjz549XV3K1GIKiEAdhq9Xr5788MMPrj7HUZd2aG/16tVufxi+SOY4hG8Ye/bsca+NGqWEBOSV84NaaUuXLi3Tpk1zZZwXn1fgGlu3bu3WDaMwYyLVMA6TJUuWuIcWD5vevXtHSg3DyAsQk2PGjHGilQUBi8hTayX71TKKJVOtnojCBg0aSPPmzZ1FVI/H97Ru3bpufxgffPCBG7qnLsdhCQ2jVKlSbt/mzSnxu5cuXerOv2zZMilTpow7Hkvq2Wef7fbTT8QxIITnz5/v1g2jMGMi1TAOA6ynzZo1k65du7qHV5MmTSJ7DMPICxCjCEosk2o59X0+GTpXayaisW3btq4csFzec889ctttt0XrI2jVPcAvU0455RS5+eabXflf//rXSGl6sNgOGDBA+vTp4+rSDyypderUcUKVMvrCUD/06tVLPvvsM1eOawD1DKOwYyGoDCOT+CGosJ7i8/bHH3/IsGHDTJwaRpyD0MQHFUupYSQa/LnBOp9omCXVMLKIWU8NwzAMI/cxS6phZJILjnxABnbrZtZTwzAMI65IVEuqiVTDyCT/TRapKdMaDMMwDCN+6Nixo3NnSTRMpBpGJumfLFIfveYamTJlitx3331y0003RfYYhmEYhpHTmE+qYWSSusnLiBEjZNy4cU6oMst3/PjxKTuTIcuMxUk1DMMwjJzBLKmGkUn82f1AhphHH31UypYtK/v375fy5cubr6phGIZh5BBmSTWMbEJcQ+IZfvLJJy6oN3ENySBjGIZhGMbhYyLVMLKBZpmaOnWqLF68WH7++WepUaOGvPLKK5EahmEYhmEcDiZSDSOL4HsajJNavHhxefjhh92EKsMwDMMwDh8TqYaRSb5OXnzr6R133JGyw6NIkSKRNcMwDMMwDoc8nzhlxCcXJC/TS5SQm/btk3+kFBkB6iUvFifVMAzDMPKGvBWpRtxSrFgxKVeunOzatUv2JQtVIz2rV692s/ktTqphGIZh5D5m2jSkZMmSblb6ypUr5cCBA9K2bdvIHsOnbt26GcZJNQzDMAwjpxD5/7j0TTFWQP9tAAAAAElFTkSuQmCC;" vertex="1" parent="1">
          <mxGeometry x="-320" y="520" width="681" height="233" as="geometry" />
        </mxCell>
      </root>
    </mxGraphModel>
  </diagram>
</mxfile>
